<?xml version="1.0" standalone="no"?><!DOCTYPE svg PUBLIC "-//W3C//DTD SVG 1.1//EN" "http://www.w3.org/Graphics/SVG/1.1/DTD/svg11.dtd"><svg t="1509502429748" class="icon" style="" viewBox="0 0 1024 1024" version="1.1" xmlns="http://www.w3.org/2000/svg" p-id="8561" xmlns:xlink="http://www.w3.org/1999/xlink" width="32" height="32"><defs><style type="text/css"></style></defs><path d="M183.767 961.038l3.586-9.63 6.15-17.228 12.814-47.102 2.568-15.205s-0.514-4.556-4.614-6.584c-4.105-2.015-2.564-4.561-2.564-4.561v-7.594s3.586-16.201 4.1-20.771c0.509-4.547 2.564-7.08 4.609-11.14 2.054-4.051 1.032-2.519 5.136-6.584 4.091-4.051 3.068-5.057 3.068-5.057l4.1-7.107 0.514-13.164 2.568-18.229 8.191-12.668 9.232-19.752 7.695-10.135 5.637-4.056 3.077-5.061 1.536-7.602 3.586-6.575 3.586-3.56 3.586-12.641c-8.196-40.036 5.641-79.549 5.641-79.549l4.1-21.262-8.2-7.093 1.536-12.654 3.586-4.065-5.632-9.108 2.559-6.084 2.05-7.093-6.15-5.065 0.509-4.561 5.132-13.673 3.073-4.561h3.586l6.159 1.018v-5.836l-6.668-59.513 1.023-33.434 2.564-3.542 7.691-4.056h4.614l7.691-0.496 5.127-1.519-6.664-3.564-11.277-2.528-23.582-3.538 2.046-22.294 5.127-17.215 1.536-13.177v-17.228l1.027-24.299 5.637-6.084 7.695-2.023 10.25 1.01 12.809 1.014 4.618-1.519v-5.07l-1.541-7.08s-5.637-28.887-5.637-29.896c12.3-107.382 73.31-116.503 73.31-116.503h17.941l7.687 3.042 5.127 5.07h4.605l1.541-2.533 1.032-3.042-1.032-3.042s-4.096-18.747-4.609-19.243c-3.077-75.985 58.951-87.63 58.951-87.63h33.323l14.355 8.094 14.864 9.126 10.764 6.571h5.127l1.536 5.588-2.046 3.538 0.509 8.612h2.564l3.073 3.042v4.051l2.564 6.575-2.564 29.896-2.559 3.538-1.027 6.079h-7.177l-2.564 3.051h-4.1l-5.127 3.029-3.077 7.602 2.054 2.537 1.536 7.08 3.073 3.037-3.586 3.055v4.565l22.555 1.01v-4.565h28.71v-27.35h6.15l1.027 18.229 10.759 1.523 2.054 6.07 203.004 1.528 1.536 9.112 8.714 1.523v-37.986h7.687l-0.509 31.393h10.764l0.514 7.093h-3.077l0.509 5.579 4.618 1.014h57.919l4.113-3.551 4.096 2.537h26.655v9.626l-2.046 4.043-24.609 0.522h-3.591l-3.586 0.487-3.586-5.052h-58.442v4.043l-16.914 1.532-3.586-5.575h-6.159V193.62h-87.138v3.042h-4.104l-5.637 3.551v5.065l-3.591 4.552-4.618 4.065-7.691 8.599h-5.123l-1.541 7.602 0.518 10.631 3.077 4.561 2.05 10.131 2.046 6.588 3.077 9.126v5.57l-6.15 3.042H688.181V292.909l-3.073 11.149-3.077 12.159-3.586 4.043-3.591 8.616-7.691 5.575-7.687 6.584-7.173 8.603-11.791 7.602h-9.227l-5.132-5.575s-7.173 1.523-7.678 2.019c-15.391-2.019-55.887-23.29-55.887-23.29l-15.378-10.135h-6.15l-0.514 4.056-0.514 7.093-4.096 4.043v8.116h4.096l8.205 3.538 5.637 3.547 4.614 7.602 2.046 6.575-0.505 16.214-3.077 60.293-3.077 11.131-11.273 15.205-4.614 5.052-5.641 1.523-6.668-3.533-7.173-3.042-2.055 3.533-2.564 5.065-1.023 3.547 0.509 5.566 2.055 7.598 0.509 9.126 3.591 4.051 6.15 9.126 4.618 5.57 10.764 7.66 8.718 15.13 15.887 25.831 15.378 31.915 11.791 28.869 7.177 20.766 2.559 5.07 8.205 0.505v18.734l3.586 3.564 2.05 6.066v9.63l-0.514 12.663-1.536 17.729v20.266l-4.614 25.831-2.046 7.093-1.541 9.112v7.093l2.564 7.602 2.564 5.575-1.541 25.318-5.123 4.565-3.077 3.533 0.514 52.185 2.564 6.066 5.641 11.654 10.25 9.63 13.332 14.187 3.586 4.552 6.146 1.519 5.645 2.037 8.709 0.496 7.177 5.575 9.741 8.599v19.77l-5.123 0.505-8.209 1.01-8.196 0.509-10.764 2.028-12.818-0.509-34.86-2.533-5.127-2.533-6.146-3.037-9.236-4.06-16.4 1.018-12.814 3.555-6.15-3.555-9.741-1.523-3.591-7.08 1.536-9.121 1.032-13.177 2.564-2.519 3.073-9.121 0.518-9.63 4.609-9.121v-58.252l-4.1-3.037h-2.564l-3.077-7.098V820.72l-5.123-8.107-4.109-25.322v-22.79l1.032-21.289 8.2-11.136v-32.911l-8.718-10.653-14.864 3.547L493.904 687l-50.751-75.985h-19.996l-15.373-25.84h-3.077v10.649l-3.586 6.07-4.614 8.107-9.227 10.131-7.182 16.706-13.837 36.471-3.077 21.284-3.586 9.108-5.127 5.588h-4.614l-3.586 3.529-3.082 8.112-7.169 12.159-3.082 5.057h-4.618l-4.609 5.065-6.664 12.672v32.42l-8.709 20.762-14.868 31.911-8.714 26.859-6.668 6.575H270.4l-3.077 7.598-5.127 18.233-6.664 13.682-2.046 39.513 2.564 8.094 2.559 6.084 3.586 5.583v16.206h-6.146c-27.178 9.613-68.697 0-68.697 0-6.662-0.001-3.585-28.365-3.585-28.365z m463.581-734.994c0.97-2.617-15.723 13.505-15.723 13.505l17.773 5.406 6.841-8.107 6.828-14.86v-9.453l-13.668-5.406c-0.001 0-3.016 21.532-2.051 18.915z" fill="#595757" p-id="8562"></path></svg>