<?xml version="1.0" standalone="no"?><!DOCTYPE svg PUBLIC "-//W3C//DTD SVG 1.1//EN" "http://www.w3.org/Graphics/SVG/1.1/DTD/svg11.dtd"><svg t="1509502630241" class="icon" style="" viewBox="0 0 1024 1024" version="1.1" xmlns="http://www.w3.org/2000/svg" p-id="9185" xmlns:xlink="http://www.w3.org/1999/xlink" width="32" height="32"><defs><style type="text/css"></style></defs><path d="M525.596 31.875c7.597 17.084 37.211 3.346 50.365 12.003l-3.082 2.326 1.089 3.661c-4.589-0.544-7.597 0.533-8.084 3.999 10.37 3.827 19.548 1.123 28.233-1.982 9.636 7.116 17.606 15.835 18.207 31.951 12.249-3.105 25.752-5.007 42.281-4.005 8.147-8.645 7.843-25.621 6.084-33.905 39.331-4.606 82.757-0.791 118.948 3.942l-1.031 3.69 3.019 2.337c-1.931 2.687-5.368 3.942-8.026 5.958l-2.355-2.973-3.735 0.957c-3.191-1.799-7.723-2.933-8.084 0 1.931 0.057 1.576 2.452 1.994 3.999h4.039c1.982-3.999 4.337-1.014 4.337-1.014l3.741-1.026c1.386 9.986 9.35-2.504 10.083-5.97l3.002-2.32-1.02-3.707c5.735-1.616 5.191 2.802 10.072 2.034l-1.02 3.632 3.008 2.337c-7.597 8.353 15.807 11.046 18.156 3.993-5.128-0.166-9.585-1.134-12.06-3.993l3.077-2.337-1.089-3.632c10.857 1.919 23.048 2.504 36.306 1.977 0.424-1.616 2.057-1.977 2.057-4.01l3.008 1.02 3.077-1.02c2.664 2.034 6.096 3.289 8.026 6.027 11.521 2.091 11.756-6.932 20.207-8.004 10.673 10.037 36.248 17.858 48.365 4.01 1.272 10.817 16.471 0.819 28.29 3.993 3.019 12.547 19.599 13.675 28.164 19.966 3.375 2.435 2.532 6.503 6.153 5.958-4.709 14.701 1.14 39.777-8.141 49.924 15.864 74.473 6.634 150.098 6.084 233.577-10.542-0.413-20.138 0-28.222 1.971-0.183 11.527 5.489 17.159 8.084 25.976-26.423 10.862-13.687 48.915 6.027 57.864-2.355 18.986 1.507 31.785 10.078 39.955-6.147 10.204-9.768 26.646-3.982 37.927-7.184 8.783-6.273 25.741-6.096 41.932-6.331 2.63-12.243-10.754-14.048 0-0.659 14.563 24.303 7.534 30.273 9.969-1.381 127.748 2.658 260.876-2.051 385.336-26.045-12.071-73.224-38.523-104.815-13.979 5.059 1.598 10.788 2.63 18.144 1.908l-1.02 3.105 3.013 0.957c-2.773 1.255-0.241 7.7-3.987 8.067-6.205 1.375-3.856-5.563-10.066-4.005-18.7 17.732-59.703 11.338-80.632 0-16.345 6.142-39.445 3.77-48.44-8.072-7.717 3.054-14.288 7.184-20.138 12.077-19.416-1.982-31.482 3.392-46.383 5.964-3.495-2.028-2.532-11.705-8.078-5.964l-2.355-3.048-3.741 0.94c-4.285-4.646-16.586-0.527-18.15 4.01l-3.747-0.957-2.349 2.991c-27.626 5.196-69.179-3.357-90.704 7.952l-3.077-0.963-3.019-1.014c-5.678-3.048-8.319 0.665-16.099-2.091-0.063 3.523 1.444 5.259 4.039 6.096l-1.089 3.638 3.071 2.378c-11.332 7.826-18.814-5.362-24.177-9.969-6.52 0.126-1.392 11.836-10.078 9.969-8.685-12.346-34.678-14.867-54.398-9.969-6.875 4.555 9.224 7.711 1.988 11.894-10.123-2.034-11.464 4.52-20.144 4.005-5.305-15.354-17.617-23.827-24.188-37.99l-2.108-0.836-1.988 0.963c0.183-2.813 0.304-5.626-2.051-5.976 0.298 1.656-0.848 1.839-2.045 1.959v3.942l-1.037 2.051 1.037 1.959c-8.095 1.965-17.68 2.452-28.233 2.017-6.394-0.275-5.97-7.454-12.066-7.986-6.331-0.361-0.836 11.166-10.072 7.986-9.711-1.782-8.445-14.334-16.162-17.967-9.041-1.071-5.609 10.324-10.078 13.916-2.103-4.606-6.869-6.44-6.021-13.916-8.989 0.412-9.058 9.619-14.111 13.916-1.994-4.045-7.723-4.297-14.122-3.936l-3.019-1.083-0.962 2.991c-4.165-1.077-3.976-5.976-8.078-1.908-5.546-0.911-1.868 7.408-6.033 7.986-0.728-9.911-5.311 1.621-10.066 0-1.209-6.136-0.544-14.14-8.084-13.962-3.678 2.326-1.329 10.57-10.072 7.935-4.165-0.539-0.481-8.766-6.038-7.935-2.893 5.792-8.559 8.834-18.207 7.935-3.019 2.401-2.355 8.439-8.021 8.072-0.309-8.96 0.722-19.347-8.032-19.955-10.542-3.151-1.318 13.372-10.123 11.882-9.052 3.122 1.083-13.011-8.015-9.969-7.969-0.539-0.613 14.094-6.039 16.07-0.848-5.97-9.528-3.902-12.066-8.004l0.962-3.054-3.008-1.003c0.361-1.61 2.045-1.977 2.045-4.01-5.007-0.235-9.831-0.292-10.129 4.01l-3.019 1.003 1.089 3.054c-16.042 1.851-26.772-1.438-36.317-6.033-2.83 5.741 5.489 10.135 0 11.945-7.471-9.201-22.069-0.252-30.267 2.017 0.602-5.305 0.722-10.02-6.033-7.986l-3.019-1.083-1.089 2.991c-1.982 0-1.501-2.383-1.982-3.942-10.736-3.162-10.433 14.816-16.105 10.02-3.798-2.973-0.241-13.051-4.039-16.047-8.027-1.375-22.378 3.523-24.188-3.942 18.03-53.516-7.058-124.586 10.072-183.642 7.242-1.621 9.762 4.469 14.117 0-1.576-38.162 4.102-69.116 4.039-105.789-7.9-0.103-15.131-1.003-20.207-3.993-3.501-34.106-8.445-84.682 0-117.762 6.159-1.501 3.804 5.483 10.009 3.993v-3.942l2.721-2.446-0.733-3.581c5.133-2.154 7.064 8.605 10.078 1.959-3.5-11.034-0.424-27.339 0-37.921-21.771-8.897-25.512-50.646-12.066-71.838-7.419-21.966-10.673-47.959-14.048-73.866-3.323 1.066-11.218 0.636-10.072-12.014 4.824-0.825 4.348 3.695 10.072 2.017-5.849-14.369 1.449-40.78-2.051-55.871-0.052-0.309-3.672 0.223-4.033 0l-0.98-2.996-3.008-1.014v-2.045l3.008-0.945 0.98-2.996c1.805 13.143 8.8 1.381 0-1.965l-0.98-2.991-3.008 1.014c-1.215-6.314 3.798-6.21 0-9.969 3.621-0.246 4.222 2.452 8.021 1.965 2.83-47.111 6.938-92.915 6.033-143.744-0.842-3.884-7.786-1.604-6.033-8.061 0.962-17.68 4.52-32.788 6.033-49.872 17.187 16.362 52.771 8.256 66.584-5.958 1.14 4.835 1.684 10.209 8.021 9.969 11.756-0.361 23.644-0.831 30.21 3.942 3.088-2.326 2.423-8.307 8.084-7.952 3.443 1.203-0.178 9.442 3.982 9.969 4.641-8.296 19.118-10.782 20.264 2.045l0.974 2.973 1.02 2.991h-1.994v6.039h6.033c0.183-2.87 0.304-5.678-2.045-6.039l1.083-3.649-3.014-2.315c11.155-14.701 42.82 2.802 56.398-8.004 9.459 6.445 28.823 8.37 34.255-2.028 16.758 28.485 75.504 3.466 104.82 19.932 4.704-1.959 2.464-10.857 6.084-13.962 7.362 0.659 13.091-0.304 18.161-1.977 1.994-2.676 3.317-6.027 6.033-7.992l2.286 2.968 3.747-1.003c6.451 6.984 0.773-15.05 8.078-13.91 7.597 1.306 21.295 4.4 28.222 0-0.533-3.243 1.936-3.478 2.057-5.981h1.988v2.028c11.103 2.882 22.017 6.084 34.26 7.895l-1.026 3.638 3.071 2.32c-7.047 6.514 9.293 9.201 12.071 6.044 0.057-3.415-1.455-5.156-3.987-6.044l1.026-2.991-1.026-2.968c6.153-3.827 16.345-3.649 20.081-9.986l2.057 0.001z m-84.739 21.989h6.09c0.069-3.415-1.564-5.082-4.039-6.044 0.12 2.813-0.974 4.428-2.051 6.044z m32.266-1.983c2.051 0 2.412 1.621 4.045 1.982-0.12-3.105 0.298-6.932-4.045-5.993v4.011z m72.617 4.011c4.824-4.824-6.64-5.191-6.096-2.028 0-0.115 6.818 1.254 6.096 2.028z m139.143 1.965h3.982v-3.993h-3.982v3.993z m-552.46 12.002c0.057-6.084-7.058-4.961-12.129-5.964-1.14 7.105 6.033 6.022 12.129 5.964z m723.807 0h6.084v-5.964h-6.084v5.964zM96.106 71.836h6.102v-5.981h-6.102v5.981z m127.084 4.005h6.027v-6.039h-6.027v6.039z m185.463 5.964c0.304-2.383 3.552-4.537 0-5.964-0.309 2.331-3.621 4.474 0 5.964z m-88.721 191.651c-5.849-1.742-2.229-2.996-1.988-8.004-12.071-9.55-29.075-20.608-46.446-31.951-24.005-15.704-39.926-35.057-74.548-29.918-20.442 3.048-33.229 14.14-56.449 17.972 16.162 24.137 38.116 43.713 58.443 63.897 59.411 58.781 116.336 123.87 175.449 185.624 5.912 2.022 9.888 2.853 12.117 3.993l-1.089 2.985 3.077-1.003c-1.444 11.327 9.659 15.285 18.161 24.011 6.508 6.8 10.914 16.597 16.099 21.971 4.285 4.417 19.238 8.966 18.098 19.943 13.572 3.575 18.637 18.333 28.227 28.021 5.546 5.483 14.896 8.588 20.201 13.905 1.507 1.438 1.146 6.932 1.988 8.009 2.297 2.756 5.792 3.031 8.084 5.97 7.11 9.316 17.067 18.27 26.239 28.01 6.268 3.346 5.672-9.986 8.021-3.993 6.21 2.681 0.665 5.597 2.045 13.962 6.52 5.569 10.381 13.67 18.156 17.978-0.361-2.326 0.43-3.581 1.931-3.942 3.317 7.408 7.179 14.157 14.111 17.972-0.539-5.849 0.544-6.881 4.045-3.993 4.222 7.694-3.019 3.283-1.988 11.997 26.182 30.811 62.356 60.975 90.715 93.832 9.636 11.172 22.195 33.682 36.294 41.926 26.606 15.52 87.461 10.691 122.987 9.98-0.298-4.263 3.317-2.355 6.084-6.044 12.375-16.483 21.719-51.178 32.272-83.852 9.946-31.058 22.619-54.879 20.149-83.777-0.252-2.521-2.779-10.29-4.045-12.02-0.665-0.945-16.953-10.438-22.137-13.962-25.443-17.319-52.175-34.598-80.638-49.884l0.962-3.048-3.019 1.083c-0.481-0.722 0.676-3.592 0-3.942-129.123-89.294-263.678-172.057-393.11-261.592h-12.129c-5.179-15.451-19.714-15.875-28.216-16.162 9.952-7.184-9.654-12.432-16.162-15.956l-0.974-2.996-1.017 2.998z m445.589 95.785c0.722 2.63 3.552 3.174 3.982 6.039 10.375-3.409 9.224 5.305 20.201 9.969 4.583-44.492 21.049-96.977 20.144-133.775 0.607 4.068-5.849-0.418-6.09-2.017 4.033 0.653 6.336-0.418 6.09-3.942-18.757-15.956-36.97-37.102-64.533-37.996-20.986-0.653-47.827 11.894-72.502 17.978a2508.537 2508.537 0 0 0-54.455 13.973c-5.615 1.564-14.478-1.323-16.162 6.096 54.037 41.45 108.195 84.86 161.332 121.779l-1.083 2.968 3.076-1.072zM247.315 834.355c51.018 3.873 104.82-28.588 159.344-39.892-2.177-4.125-5.122-10.92-8.084-13.91 1.026 1.071-1.323 2.446-1.994 1.959-15.079-11.647-28.285-30.628-44.326-45.913-43.364-41.267-92.583-87.375-137.092-127.806-15.262 36.076-31.356 75.08-48.423 115.74-5.254 12.65-16.053 29.098-14.117 39.955 2.412 13.074 50.055 40.602 64.533 53.86 8.084 7.465 16.397 13.034 28.285 15.956l0.974 3.105 0.9-3.054z" fill="#595757" p-id="9186"></path></svg>