<?xml version="1.0" standalone="no"?><!DOCTYPE svg PUBLIC "-//W3C//DTD SVG 1.1//EN" "http://www.w3.org/Graphics/SVG/1.1/DTD/svg11.dtd"><svg t="1509502595297" class="icon" style="" viewBox="0 0 1024 1024" version="1.1" xmlns="http://www.w3.org/2000/svg" p-id="9047" xmlns:xlink="http://www.w3.org/1999/xlink" width="32" height="32"><defs><style type="text/css"></style></defs><path d="M733.238 473.04c14.031 0 136.91-5.945 163.313-7.236V337.015C864.167 93.751 609.215 35.123 601.054 32.426c-7.868-2.606-168.114-1.741-178.103 0-8.465 1.472-263.119 61.326-295.502 304.589v128.789c26.402 1.29 149.287 7.236 163.313 7.236 15.726 0 102.695 16.819 106.399 99.047 3.699 82.233-36.082 91.579-76.789 87.839-40.712-3.739-47.183-121.477-128.602-140.169-28.775-6.603-49.45-10.024-64.321-11.724v86.559l34.407 44.977s6.072 114.475 46.551 114.475 32.383-44.977 72.862-44.977 28.335 171.722 28.335 171.722 8.096 51.105 50.599 51.105 30.359-85.861 64.766-85.861 3.501 147.187 86.483 147.187 53.169-147.187 87.576-147.187 22.263 85.861 64.766 85.861 50.599-51.105 50.599-51.105-12.144-171.722 28.34-171.722c40.474 0 32.378 44.977 72.862 44.977 40.474 0 46.551-114.475 46.551-114.475l34.402-44.977v-86.559c-14.866 1.7-35.546 5.121-64.321 11.724-81.418 18.691-87.89 136.429-128.597 140.169-40.712 3.739-80.492-5.606-76.789-87.839 3.702-82.228 90.671-99.047 106.397-99.047zM378.116 372.252c-60.005 57.829-117.799 31.958-147.936 12.174-30.132-19.784-57.258-74.572 48.216-188.708C383.869 81.572 457.697 93.751 464.994 90.71c0 0 28.867 30.435 0 85.223-28.867 54.784-26.878 138.49-86.878 196.319zM520.207 702.91h-16.414c-15.519 0-28.219-12.822-28.219-28.497s12.7-28.502 28.219-28.502h16.414c15.519 0 28.219 12.827 28.219 28.502s-12.7 28.497-28.219 28.497z m38.799-526.976c-28.867-54.788 0-85.223 0-85.223 7.296 3.041 81.125-9.138 186.598 105.008 105.473 114.136 78.352 168.924 48.221 188.708-30.142 19.784-87.936 45.655-147.941-12.174-59.995-57.83-58.011-141.536-86.878-196.319z" fill="#595757" p-id="9048"></path></svg>