<?xml version="1.0" standalone="no"?><!DOCTYPE svg PUBLIC "-//W3C//DTD SVG 1.1//EN" "http://www.w3.org/Graphics/SVG/1.1/DTD/svg11.dtd"><svg t="1509502498270" class="icon" style="" viewBox="0 0 1024 1024" version="1.1" xmlns="http://www.w3.org/2000/svg" p-id="8879" xmlns:xlink="http://www.w3.org/1999/xlink" width="32" height="32"><defs><style type="text/css"></style></defs><path d="M500.665 349.99c-0.043-23.022 3.394-49.345-23.663-51.037-32.992-2.054-26.015 30.561-26.156 54.402-0.496 80.511 1.29 161.076-0.283 241.543-0.431 22.066 12.842 61.608-17.479 62.564-34.51 1.087-15.436-38.585-15.886-59.452-1.815-85.695-1.315-171.48-1.188-257.233 0.04-26.38-3.452-46.305-28.891-45.255-28.047 1.152-27.087 26.069-26.54 50.406 1.17 51.83 1.666 263.352 0.37 317.859-1.54 64.524 31.405 61.727 64.499 58.673 32.999-3.039 76.765 17.729 75.867-60.709-1.205-103.902-0.444-207.837-0.65-311.761z m272.756 133.782c9.524 44.791 5.532 90.057 4.554 136.923-0.417 19.918 6.948 46.244-17.907 45.048-17.748-0.859-17.715-23.287-17.559-41.958 0.725-82.645 1.304-165.293 1.935-247.941h0.004c-0.685-11.451 1.985-20.519 11.238-23.475 15.886-5.068 20.841 6.499 22.928 24.754 2.442 21.305 15.36 21.269 27.369 18.186 15.259-3.912 15.759-20.12 15.357-36.423-0.844-34.419 0.924-73.269-39.198-64.723-33.901 7.22-88.198-32.362-89.281 58.065-1.243 104.163 0.004 208.381 0.167 312.574 0.033 24.276 1.634 46.142 23.327 56.518 65.698 31.416 106.761-4.876 107.272-96.121 0.185-33.872-0.206-67.759 0.351-101.628 1.139-69.516-11.16-76.381-50.557-39.799z m175.817 170.593h-15.701c-5.684-7.64-5.673-18.008-5.764-29.507-0.609-80.355-1.253-160.714-2.264-241.062-0.087-6.282 0.63-11.401 2.561-15.541h21.167c17.958 0 32.648-19.182 32.648-42.632s-14.69-42.636-32.648-42.636h-14.936c-14.313-7.3-8.647-25.384-10.412-39.44-3.047-24.254 7.013-53.007-14.1-71.153-20.787-13.904-43.107-6.894-64.636-6.945-110.913-0.261-221.829-0.322-332.756-0.355h-0.739c-110.92 0.033-221.836 0.094-332.745 0.355-21.53 0.051-43.86-6.959-64.647 6.945-21.109 18.146-11.046 46.899-14.089 71.153-1.768 14.056 3.891 32.141-10.419 39.44H74.766c-17.958 0-32.651 19.186-32.651 42.636 0 23.45 14.694 42.632 32.651 42.632h21.229c1.931 4.141 2.645 9.26 2.565 15.541-1.014 80.348-1.659 160.706-2.271 241.062-0.083 11.498-0.08 21.867-5.764 29.507H74.766c-17.958 0-32.651 19.189-32.651 42.639 0 23.446 14.694 42.635 32.651 42.635h11.607c6.847 8.426 7.561 18.61 6.347 30.076-8.944 83.963 27.964 91.114 79.29 90.528 113.332-1.279 226.676-1.84 340.019-1.949 113.354 0.109 226.69 0.67 340.026 1.949 51.323 0.587 88.238-6.564 79.294-90.528-1.217-11.466-0.504-21.649 6.34-30.076h11.549c17.958 0 32.648-19.189 32.648-42.635 0-23.45-14.69-42.639-32.648-42.639z m-108.92 133.076c-109.424-0.88-218.854-1.076-328.289-0.706-109.427-0.37-218.854-0.174-328.285 0.706-39.534 0.312-34.455-28.445-34.292-59.619 0.721-143.267 3.398-286.584 1.098-429.764-0.92-57.018 15.172-69.476 55.253-68.244 102.022 3.134 204.146 1.148 306.227 1.087 102.088 0.062 204.204 2.047 306.234-1.087 40.082-1.232 56.17 11.227 55.253 68.244-2.304 143.18 0.373 286.497 1.094 429.764 0.159 31.174 5.241 59.931-34.293 59.619zM249.123 294.983c-38.738-7.843-51.482 11.973-49.848 64.133 3.148 100.302 0 200.915 0.804 301.39 0.203 25.428-10.118 63.249 25.964 63.397 37.031 0.156 24.102-38.451 25.268-63.379 2.576-54.782-16.237-125.345 60.821-115.079 14.382 1.924 17.903-24.631 18.055-43.567 0.21-26.029 0.051-52.058 0.051-78.084h0.511c0-20.823-1.105-41.766 0.192-62.452 5.775-92.305-47.403-59.404-81.818-66.359z m30.988 173.744c0 7.916-4.967 14.404-11.035 14.404h-7.082c-6.064 0-11.035-6.488-11.035-14.404V360.34c0-7.927 4.97-14.411 11.035-14.411h7.082c6.068 0 11.035 6.485 11.035 14.411v108.387z m380.358-70.382c-0.42 0.007-0.837 0.007-1.257 0.007 0-10.39-1.141-21.037 0.181-31.133 9.213-70.201-23.142-71.99-63.687-74.088-44.527-2.308-63.807 10.227-60.648 75.526 4.688 97.077 3.586 194.959 0.413 292.232-1.8 55.156 16.302 66.306 52.623 62.307 34.655-3.815 75.099 11.564 72.929-65.382-2.423-86.38-0.554-172.97-0.554-259.469z m-47.975 252.176c0 7.919-4.963 14.407-11.031 14.407h-7.082c-6.072 0-11.038-6.488-11.038-14.407V542.13c0-7.919 4.967-14.404 11.038-14.404h7.082c6.068 0 11.031 6.485 11.031 14.404v108.391z m0-181.794c0 7.916-4.963 14.404-11.031 14.404h-7.082c-6.072 0-11.038-6.488-11.038-14.404V360.34c0-7.927 4.967-14.411 11.038-14.411h7.082c6.068 0 11.031 6.485 11.031 14.411v108.387z" fill="#595757" p-id="8880"></path></svg>